<svg width="115" height="115" viewBox="0 0 115 115" fill="none" xmlns="http://www.w3.org/2000/svg">
<path d="M115 57.5C115 89.2564 89.2564 115 57.5 115C25.7436 115 0 89.2564 0 57.5C0 25.7436 25.7436 0 57.5 0C89.2564 0 115 25.7436 115 57.5Z" fill="#585C3B"/>
<path d="M113.781 68.3373C114.45 64.8276 114.801 61.2047 114.801 57.5C114.801 45.6561 111.22 34.6485 105.081 25.5009C104.155 25.9603 103.261 26.5592 102.388 27.1436C101.707 27.5995 101.04 28.0465 100.38 28.4117C98.4593 29.4755 98.3065 31.8993 98.1579 34.2563C98.0604 35.8041 97.9647 37.323 97.3713 38.4091C95.8433 41.2059 92.1506 41.067 89.0774 40.9515C88.4937 40.9295 87.9324 40.9084 87.4126 40.9084C82.7204 40.9084 79.8619 40.1674 75.4478 38.6868C73.0658 37.8878 70.7138 35.9478 68.392 33.8804C67.3482 33.9062 65.9497 33.766 64.6149 33.6321C63.4873 33.519 62.4048 33.4104 61.6202 33.4104C57.0875 33.4104 57.0963 30.04 57.1057 26.4114C57.1061 26.2455 57.1066 26.0791 57.1066 25.9124C57.1066 23.6395 54.8578 22.2615 52.8555 21.0345C49.764 19.1401 47.2599 17.6057 54.5273 13.6934C55.6581 13.0846 56.7347 12.6217 57.7626 12.1797C60.1777 11.1412 62.3237 10.2184 64.2711 7.79214C66.1727 5.42294 68.1928 2.90677 71.0671 1.65845C66.6564 0.574753 62.0457 0 57.3006 0C33.9748 0 13.893 13.8893 4.87451 33.8487C5.27719 33.6248 5.63391 33.4137 5.96152 33.2197C7.94705 32.0444 8.86368 31.5017 12.4684 32.5855C13.0787 32.769 13.9227 32.6834 14.7929 32.5951C16.17 32.4554 17.6126 32.3091 18.2987 33.2115C18.4667 33.4325 18.6405 33.7774 18.8296 34.1529C19.4086 35.3027 20.1321 36.739 21.2733 35.7783C22.5704 34.6864 25.5032 34.1354 26.6277 36.0287C27.2964 37.1546 28.2383 37.1534 29.2339 37.1522C30.0552 37.1512 30.9131 37.1501 31.6846 37.7815C33.619 39.3648 34.2691 41.2724 34.9128 43.1614C35.3715 44.5073 35.8269 45.8438 36.7415 47.0467C38.0653 48.788 38.3864 50.8654 38.7108 52.9645C39.0422 55.1082 39.3771 57.2746 40.787 59.129C43.2072 62.3125 40.7601 67.2897 38.9877 70.8946C38.7823 71.3124 38.5859 71.7118 38.4073 72.0878C37.2409 74.5424 37.7496 76.5233 38.263 78.5224C38.6918 80.1923 39.1239 81.875 38.5857 83.8571C37.7412 86.9675 31.131 87.4532 27.456 87.7233L27.4547 87.7234C26.7871 87.7724 26.2164 87.8144 25.7948 87.8637C22.7373 88.2211 19.6843 87.8098 16.5479 87.3872C14.1587 87.0653 11.721 86.7368 9.19635 86.7368C8.6781 86.7368 8.17798 86.6874 7.69415 86.5948C17.6843 103.591 36.1601 115 57.3006 115C69.3809 115 80.5911 111.275 89.8451 104.91C89.7869 104.875 89.7287 104.841 89.6706 104.806C87.6292 103.587 85.6728 102.418 83.722 102.285C81.4184 102.128 79.309 102.533 77.1841 102.94C75.3578 103.29 73.5202 103.642 71.5381 103.642C70.8705 103.642 70.1213 103.705 69.3376 103.771C66.2289 104.034 62.5774 104.342 61.3232 100.928C59.7002 96.5106 56.8999 85.1629 60.7079 81.9337C62.5677 80.3565 64.1115 78.8557 65.557 77.4506C68.9289 74.1728 71.7655 71.4153 76.8301 69.4212C77.0312 69.342 77.2334 69.2679 77.4366 69.1986C77.4987 69.1414 77.5632 69.0898 77.6301 69.0443C79.62 67.6901 80.9483 66.3259 82.5038 64.7285C83.0531 64.1643 83.6307 63.571 84.2759 62.9388C89.7504 57.5741 98.4545 60.057 102.552 66.3308C103.408 67.6423 106.014 70.1586 107.475 69.6473C108.158 69.408 108.596 68.2436 108.966 67.2583C109.261 66.4739 109.513 65.8031 109.813 65.8031C110.519 65.8031 111.022 66.3317 111.571 66.9088C112.155 67.5231 112.792 68.1923 113.781 68.3373Z" fill="#374492"/>
</svg>
